<mxfile host="app.diagrams.net" agent="Mozilla/5.0 (Windows NT 10.0; Win64; x64; rv:132.0) Gecko/20100101 Firefox/132.0" version="24.8.6">
  <diagram name="Page-1" id="eK9XAKkeAexcRg6lVBcZ">
    <mxGraphModel dx="1050" dy="491" grid="1" gridSize="10" guides="1" tooltips="1" connect="1" arrows="1" fold="1" page="1" pageScale="1" pageWidth="850" pageHeight="1100" math="0" shadow="0">
      <root>
        <mxCell id="0" />
        <mxCell id="1" parent="0" />
        <mxCell id="OD7F0kiTwKNwgKXqn9D3-1" value="Actor" style="shape=umlActor;verticalLabelPosition=bottom;verticalAlign=top;html=1;outlineConnect=0;" vertex="1" parent="1">
          <mxGeometry x="40" y="160" width="40" height="80" as="geometry" />
        </mxCell>
        <mxCell id="OD7F0kiTwKNwgKXqn9D3-2" value="" style="rounded=1;whiteSpace=wrap;html=1;" vertex="1" parent="1">
          <mxGeometry x="200" y="40" width="520" height="320" as="geometry" />
        </mxCell>
        <mxCell id="OD7F0kiTwKNwgKXqn9D3-4" value="Player enters level" style="ellipse;whiteSpace=wrap;html=1;" vertex="1" parent="1">
          <mxGeometry x="210" y="100" width="120" height="80" as="geometry" />
        </mxCell>
        <mxCell id="OD7F0kiTwKNwgKXqn9D3-5" value="Level is selected between a few options created" style="ellipse;whiteSpace=wrap;html=1;" vertex="1" parent="1">
          <mxGeometry x="490" y="100" width="120" height="80" as="geometry" />
        </mxCell>
        <mxCell id="OD7F0kiTwKNwgKXqn9D3-6" value="" style="endArrow=classic;html=1;rounded=0;" edge="1" parent="1" target="OD7F0kiTwKNwgKXqn9D3-4">
          <mxGeometry width="50" height="50" relative="1" as="geometry">
            <mxPoint x="80" y="200" as="sourcePoint" />
            <mxPoint x="130" y="150" as="targetPoint" />
          </mxGeometry>
        </mxCell>
        <mxCell id="OD7F0kiTwKNwgKXqn9D3-7" value="" style="endArrow=classic;html=1;rounded=0;entryX=0;entryY=0.5;entryDx=0;entryDy=0;" edge="1" parent="1" target="OD7F0kiTwKNwgKXqn9D3-5">
          <mxGeometry width="50" height="50" relative="1" as="geometry">
            <mxPoint x="330" y="140" as="sourcePoint" />
            <mxPoint x="380" y="90" as="targetPoint" />
          </mxGeometry>
        </mxCell>
        <mxCell id="OD7F0kiTwKNwgKXqn9D3-8" value="Player decends to next floor" style="ellipse;whiteSpace=wrap;html=1;" vertex="1" parent="1">
          <mxGeometry x="340" y="220" width="120" height="80" as="geometry" />
        </mxCell>
        <mxCell id="OD7F0kiTwKNwgKXqn9D3-9" value="" style="endArrow=classic;html=1;rounded=0;entryX=1;entryY=0;entryDx=0;entryDy=0;exitX=0.5;exitY=1;exitDx=0;exitDy=0;" edge="1" parent="1" source="OD7F0kiTwKNwgKXqn9D3-5" target="OD7F0kiTwKNwgKXqn9D3-8">
          <mxGeometry width="50" height="50" relative="1" as="geometry">
            <mxPoint x="520" y="250" as="sourcePoint" />
            <mxPoint x="570" y="200" as="targetPoint" />
          </mxGeometry>
        </mxCell>
        <mxCell id="OD7F0kiTwKNwgKXqn9D3-10" value="" style="endArrow=classic;html=1;rounded=0;entryX=1;entryY=1;entryDx=0;entryDy=0;" edge="1" parent="1" target="OD7F0kiTwKNwgKXqn9D3-4">
          <mxGeometry width="50" height="50" relative="1" as="geometry">
            <mxPoint x="350" y="240" as="sourcePoint" />
            <mxPoint x="400" y="190" as="targetPoint" />
          </mxGeometry>
        </mxCell>
      </root>
    </mxGraphModel>
  </diagram>
</mxfile>
